<svg width="32" height="35" viewBox="0 0 32 35" fill="none" xmlns="http://www.w3.org/2000/svg">
<path d="M3.77775 32.2766C3.02775 32.2766 2.37729 32.0012 1.82637 31.4502C1.27546 30.8993 1 30.2489 1 29.4989V5.05436C1 4.30436 1.27546 3.6539 1.82637 3.10299C2.37729 2.55207 3.02775 2.27661 3.77775 2.27661H28.2222C28.9722 2.27661 29.6227 2.55207 30.1736 3.10299C30.7245 3.6539 31 4.30436 31 5.05436V29.4989C31 30.2489 30.7245 30.8993 30.1736 31.4502C29.6227 32.0012 28.9722 32.2766 28.2222 32.2766H3.77775ZM3.77775 29.4989H28.2222V24.0544H22.5C21.7407 25.147 20.7847 25.9896 19.632 26.5822C18.4792 27.1748 17.2685 27.4711 16 27.4711C14.7315 27.4711 13.5208 27.1748 12.368 26.5822C11.2153 25.9896 10.2593 25.147 9.5 24.0544H3.77775V29.4989ZM16.0068 24.6933C17.1134 24.6933 18.1157 24.3739 19.0139 23.735C19.912 23.0961 20.6296 22.2766 21.1667 21.2766H28.2222V5.05436H3.77775V21.2766H10.8333C11.3704 22.2766 12.0902 23.0961 12.993 23.735C13.8957 24.3739 14.9003 24.6933 16.0068 24.6933Z" fill="#0B0B0C"/>
</svg>
