<svg width="37" height="37" viewBox="0 0 37 37" fill="none" xmlns="http://www.w3.org/2000/svg">
<path d="M9.77091 13.5209C9.69497 14.0267 9.82309 14.542 10.1271 14.9533C10.431 15.3647 10.886 15.6385 11.3918 15.7144C11.8976 15.7903 12.4129 15.6622 12.8243 15.3582C13.2356 15.0543 13.5094 14.5993 13.5853 14.0935C13.6612 13.5877 13.5331 13.0724 13.2291 12.661C12.9252 12.2497 12.4702 11.9759 11.9644 11.9C11.4586 11.8241 10.9433 11.9522 10.532 12.2562C10.1206 12.5601 9.84684 13.0151 9.77091 13.5209V13.5209ZM23.757 15.6204C23.6811 16.1263 23.8092 16.6415 24.1132 17.0529C24.4172 17.4642 24.8721 17.738 25.378 17.8139C25.8838 17.8899 26.399 17.7618 26.8104 17.4578C27.2218 17.1538 27.4955 16.6989 27.5715 16.193C27.6474 15.6872 27.5193 15.172 27.2153 14.7606C26.9113 14.3492 26.4564 14.0755 25.9506 13.9995C25.4447 13.9236 24.9295 14.0517 24.5181 14.3557C24.1067 14.6597 23.833 15.1146 23.757 15.6204V15.6204ZM20.8006 0.672151C10.9705 -0.803497 1.8035 5.97051 0.327849 15.8006C-1.1478 25.6306 5.62621 34.7976 15.4562 36.2733C25.2863 37.7489 34.4533 30.9749 35.929 21.1449C37.4046 11.3148 30.6306 2.1478 20.8006 0.672151ZM27.0096 30.4913C25.4467 31.6462 23.7055 32.4736 21.8331 32.9564C19.9016 33.4546 17.9081 33.5535 15.9096 33.2535C13.911 32.9535 12.0344 32.2736 10.3303 31.2296C8.68424 30.2235 7.24945 28.907 6.10585 27.3533C4.95096 25.7904 4.1235 24.0492 3.64075 22.1769C3.14647 20.2459 3.04756 18.2525 3.34758 16.2539C3.64761 14.2553 4.32747 12.3787 5.37148 10.6746C6.37756 9.02854 7.6941 7.59376 9.24781 6.45016C10.8107 5.29526 12.5519 4.4678 14.4242 3.98505C16.3552 3.49078 18.3487 3.39187 20.3472 3.69189C22.3458 3.99191 24.2224 4.67177 25.9265 5.71578C27.5726 6.72186 29.0073 8.0384 30.1509 9.59212C31.3058 11.155 32.1333 12.8962 32.6161 14.7686C33.1103 16.6995 33.2092 18.693 32.9092 20.6915C32.6092 22.6901 31.9293 24.5667 30.8853 26.2708C29.8802 27.9163 28.5637 29.3499 27.0096 30.4913V30.4913ZM24.0426 20.2137L22.1314 19.9268C21.9646 19.9018 21.8024 20.0075 21.7655 20.1725C21.3192 22.1167 19.4371 23.4227 17.4305 23.1215C15.424 22.8203 14.0043 21.0186 14.1525 19.0297C14.1657 18.861 14.0417 18.7124 13.8748 18.6874L11.9637 18.4005C11.9206 18.394 11.8766 18.3963 11.8344 18.4073C11.7922 18.4183 11.7527 18.4378 11.7183 18.4645C11.6839 18.4913 11.6552 18.5248 11.6342 18.5629C11.6131 18.6011 11.6 18.6431 11.5957 18.6865C11.2677 22.0623 13.6516 25.1545 17.0488 25.6644C20.446 26.1744 23.6327 23.9185 24.3104 20.5952C24.319 20.5525 24.3188 20.5084 24.3099 20.4658C24.301 20.4231 24.2834 20.3827 24.2584 20.347C24.2333 20.3113 24.2013 20.2811 24.1642 20.2582C24.1271 20.2353 24.0857 20.2201 24.0426 20.2137V20.2137Z" fill="#0B0B0C"/>
</svg>
