<svg width="17" height="17" viewBox="0 0 17 17" fill="none" xmlns="http://www.w3.org/2000/svg">
<path d="M15.4333 16.7593L9.67038 10.9963C9.22593 11.3716 8.71008 11.6655 8.12282 11.8778C7.53558 12.0902 6.91069 12.1963 6.24816 12.1963C4.64162 12.1963 3.28196 11.6395 2.16918 10.526C1.05639 9.41239 0.5 8.06301 0.5 6.47783C0.5 4.89264 1.05679 3.54326 2.17038 2.42967C3.28395 1.31609 4.6358 0.759293 6.22593 0.759293C7.81605 0.759293 9.16543 1.31609 10.2741 2.42967C11.3827 3.54326 11.937 4.89338 11.937 6.48005C11.937 7.12054 11.8333 7.73461 11.6259 8.32227C11.4185 8.90991 11.1173 9.45066 10.7222 9.94449L16.5 15.6926L15.4333 16.7593ZM6.23333 10.7149C7.40618 10.7149 8.40309 10.3013 9.22407 9.47412C10.0451 8.64696 10.4556 7.6482 10.4556 6.47783C10.4556 5.30744 10.0451 4.30867 9.22407 3.48152C8.40309 2.65436 7.40618 2.24078 6.23333 2.24078C5.05227 2.24078 4.04836 2.65436 3.2216 3.48152C2.39484 4.30867 1.98147 5.30744 1.98147 6.47783C1.98147 7.6482 2.39484 8.64696 3.2216 9.47412C4.04836 10.3013 5.05227 10.7149 6.23333 10.7149Z" fill="#BBBBBB"/>
</svg>
