<?xml version="1.0" encoding="UTF-8"?>
<svg id="Layer_1" data-name="Layer 1" xmlns="http://www.w3.org/2000/svg" viewBox="0 0 36 36">
  <defs>
    <style>
      .cls-1 {
        fill: #dc1f1f;
      }
    </style>
  </defs>
  <path class="cls-1" d="M9.64,13.05c-.08,.51,.05,1.02,.36,1.43,.3,.41,.76,.69,1.26,.76s1.02-.05,1.43-.36c.41-.3,.69-.76,.76-1.26,.08-.51-.05-1.02-.36-1.43-.3-.41-.76-.69-1.26-.76-.51-.08-1.02,.05-1.43,.36-.41,.3-.69,.76-.76,1.26h0Zm13.99,2.1c-.08,.51,.05,1.02,.36,1.43,.3,.41,.76,.69,1.26,.76,.51,.08,1.02-.05,1.43-.36s.69-.76,.76-1.26c.08-.51-.05-1.02-.36-1.43-.3-.41-.76-.69-1.26-.76-.51-.08-1.02,.05-1.43,.36-.41,.3-.69,.76-.76,1.26h0ZM20.67,.2C10.84-1.27,1.68,5.5,.2,15.33c-1.48,9.83,5.3,19,15.13,20.47,9.83,1.48,19-5.3,20.47-15.13C37.28,10.84,30.5,1.68,20.67,.2Zm6.21,29.82c-1.56,1.15-3.3,1.98-5.18,2.47-1.93,.5-3.92,.6-5.92,.3-2-.3-3.88-.98-5.58-2.02-1.65-1.01-3.08-2.32-4.22-3.88-1.15-1.56-1.98-3.3-2.47-5.18-.49-1.93-.59-3.92-.29-5.92,.3-2,.98-3.88,2.02-5.58,1.01-1.65,2.32-3.08,3.88-4.22,1.56-1.15,3.3-1.98,5.18-2.47,1.93-.49,3.92-.59,5.92-.29,2,.3,3.88,.98,5.58,2.02,1.65,1.01,3.08,2.32,4.22,3.88,1.15,1.56,1.98,3.3,2.47,5.18,.49,1.93,.59,3.92,.29,5.92-.3,2-.98,3.88-2.02,5.58-1.01,1.65-2.32,3.08-3.88,4.22h0Zm-2.97-10.28l-1.91-.29c-.17-.02-.33,.08-.37,.25-.45,1.94-2.33,3.25-4.33,2.95-2.01-.3-3.43-2.1-3.28-4.09,.01-.17-.11-.32-.28-.34l-1.91-.29s-.09,0-.13,0c-.04,.01-.08,.03-.12,.06-.03,.03-.06,.06-.08,.1-.02,.04-.03,.08-.04,.12-.33,3.38,2.06,6.47,5.45,6.98,3.4,.51,6.58-1.75,7.26-5.07,0-.04,0-.09,0-.13,0-.04-.03-.08-.05-.12-.03-.04-.06-.07-.09-.09s-.08-.04-.12-.04h0Z"/>
</svg>