<svg width="80" height="81" viewBox="0 0 80 81" fill="none" xmlns="http://www.w3.org/2000/svg">
<path d="M2.85714 3.03585L8.57143 8.75014L8.21788 9.10369L13.9322 14.818L14.2857 14.4644L20 20.1787L19.6464 20.5323L25.3607 26.2466L25.7143 25.893L31.4286 31.6073L31.075 31.9608L36.7893 37.6751L37.1429 37.3216L42.8571 43.0359L42.5036 43.3894L48.2179 49.1037L48.5714 48.7501L54.2857 54.4644L53.9322 54.818L59.6465 60.5323L60 60.1787L65.7143 65.893L65.3607 66.2466L71.075 71.9608L71.4286 71.6073L77.1429 77.3216L76.7893 77.6751L78.7929 79.6787L76 79.6787L76 80.1787L68 80.1787L68 79.6787L60 79.6787L60 80.1787L52 80.1787L52 79.6787L44 79.6787L44 80.1787L36 80.1787L36 79.6787L28 79.6787L28 80.1787L20 80.1787L20 79.6787L12 79.6787L12 80.1787L4 80.1787L4 79.6787L0.499997 79.6787L0.499997 76.1787L-3.32207e-06 76.1787L-2.97237e-06 68.1787L0.499997 68.1787L0.499997 60.1787L-2.62268e-06 60.1787L-2.27299e-06 52.1787L0.499998 52.1787L0.499998 44.1787L-1.9233e-06 44.1787L-1.57361e-06 36.1787L0.499998 36.1787L0.499999 28.1787L-1.22392e-06 28.1787L-8.74228e-07 20.1787L0.499999 20.1787L0.499999 12.1787L-5.24537e-07 12.1787L-1.74846e-07 4.17871L0.5 4.17871L0.5 1.38582L2.50359 3.38941L2.85714 3.03585Z" stroke="#DC1F1F" stroke-dasharray="8 8"/>
<path d="M79.5 78.9716L1.20711 0.678711H79.5V78.9716Z" fill="#DC1F1F" stroke="#DC1F1F"/>
<mask id="path-3-outside-1_1531_41832" maskUnits="userSpaceOnUse" x="36.1212" y="9.53553" width="33.234" height="33.234" fill="black">
<rect fill="white" x="36.1212" y="9.53553" width="33.234" height="33.234"/>
<path d="M41.082 19.6243C40.6662 19.2085 40.3627 18.7663 40.1713 18.2978C39.9865 17.8226 39.9238 17.3639 39.9832 16.9217C40.0492 16.473 40.2373 16.0737 40.5474 15.7239L41.478 16.6544C41.2338 16.9514 41.1381 17.2979 41.1909 17.6939C41.2503 18.0965 41.4648 18.4825 41.8344 18.8521C42.1776 19.1953 42.524 19.39 42.8738 19.4362C43.2236 19.4824 43.514 19.39 43.745 19.159C43.9826 18.9214 44.0519 18.6409 43.9529 18.3176C43.8605 17.9876 43.6493 17.5454 43.3193 16.991C43.0223 16.4829 42.7979 16.0473 42.6461 15.6843C42.5075 15.3213 42.4514 14.9418 42.4778 14.5458C42.5174 14.1499 42.7121 13.777 43.0619 13.4272C43.3391 13.15 43.6757 12.9784 44.0717 12.9124C44.4676 12.8464 44.8834 12.8992 45.319 13.0708C45.7612 13.2358 46.177 13.513 46.5663 13.9024C47.1669 14.503 47.5002 15.1398 47.5662 15.813C47.6322 16.4862 47.4144 17.0999 46.9128 17.6543L46.012 16.7534C46.276 16.4499 46.3881 16.1067 46.3485 15.7239C46.3156 15.3477 46.1242 14.9847 45.7744 14.6349C45.451 14.3116 45.1243 14.1235 44.7943 14.0707C44.4643 14.0179 44.1872 14.1037 43.9628 14.3281C43.7846 14.5063 43.6922 14.7108 43.6856 14.9418C43.6922 15.1728 43.745 15.4104 43.844 15.6546C43.9562 15.8988 44.1245 16.2189 44.3489 16.6148C44.6326 17.1098 44.8438 17.5322 44.9824 17.882C45.1276 18.2252 45.1837 18.5848 45.1507 18.961C45.1243 19.3438 44.9494 19.7035 44.626 20.0401C44.3291 20.3371 43.9793 20.5218 43.5767 20.5944C43.1741 20.667 42.7517 20.6208 42.3096 20.4558C41.8806 20.2909 41.4714 20.0137 41.082 19.6243ZM46.8184 19.7179C47.3728 19.1636 47.97 18.7907 48.6102 18.5993C49.257 18.4013 49.8905 18.3815 50.5109 18.5399C51.1379 18.7049 51.6922 19.0283 52.174 19.5101C52.6492 19.9852 52.9594 20.5 53.1046 21.0544C53.2498 21.6088 53.2531 22.1268 53.1145 22.6086L54.1044 21.6187L55.0152 22.5294L49.5902 27.9543L48.6795 27.0436L49.6892 26.0338C49.1943 26.1724 48.663 26.1691 48.0954 26.0239C47.5411 25.8787 47.0296 25.5719 46.561 25.1033C46.0792 24.6215 45.7624 24.0671 45.6106 23.4402C45.4589 22.8132 45.4853 22.173 45.6898 21.5197C45.8944 20.8663 46.2706 20.2657 46.8184 19.7179ZM51.4019 24.3212C51.811 23.912 52.0849 23.4732 52.2235 23.0046C52.3621 22.536 52.3687 22.0806 52.2433 21.6385C52.1311 21.1963 51.9067 20.8069 51.5701 20.4703C51.2336 20.1337 50.8475 19.906 50.4119 19.7872C49.9763 19.6685 49.5242 19.6784 49.0557 19.8169C48.5871 19.9555 48.1482 20.2294 47.739 20.6386C47.3233 21.0544 47.0428 21.4999 46.8976 21.975C46.759 22.4436 46.7458 22.899 46.858 23.3412C46.9768 23.7767 47.2045 24.1628 47.5411 24.4994C47.8776 24.836 48.2637 25.0637 48.6993 25.1825C49.1481 25.3013 49.6067 25.2914 50.0753 25.1528C50.5505 25.0076 50.9927 24.7304 51.4019 24.3212ZM53.9637 30.6646L60.2399 27.7542L61.2002 28.7144L53.6469 32.011L52.5975 30.9616L55.8941 23.4083L56.8642 24.3784L53.9637 30.6646ZM64.5318 37.0552C64.3602 37.2268 64.1689 37.3984 63.9577 37.57L59.6217 33.234C59.1201 33.8016 58.8825 34.4021 58.9089 35.0357C58.9485 35.6693 59.2059 36.2237 59.6811 36.6988C60.0705 37.0882 60.4829 37.3225 60.9185 37.4017C61.3673 37.4809 61.7963 37.4215 62.2055 37.2235L63.1756 38.1937C62.509 38.5698 61.793 38.7051 61.0274 38.5995C60.2685 38.4873 59.5656 38.1079 58.9188 37.4611C58.404 36.9463 58.0576 36.3688 57.8794 35.7287C57.7078 35.0951 57.7177 34.4516 57.9091 33.7983C58.1071 33.1383 58.4865 32.5278 59.0475 31.9669C59.6085 31.4059 60.2124 31.0264 60.8591 30.8284C61.5059 30.6304 62.1428 30.6205 62.7697 30.7987C63.4099 30.9769 63.994 31.33 64.5219 31.858C65.0367 32.3728 65.3799 32.9403 65.5515 33.5607C65.7231 34.1811 65.7165 34.7948 65.5317 35.402C65.3601 36.0092 65.0268 36.5602 64.5318 37.0552ZM63.7894 35.9366C64.1326 35.5934 64.3503 35.2238 64.4427 34.8278C64.5417 34.4252 64.5219 34.0293 64.3833 33.6399C64.2579 33.2505 64.0369 32.8974 63.7201 32.5806C63.2647 32.1253 62.7301 31.8811 62.1164 31.8481C61.5092 31.8217 60.9251 32.0428 60.3641 32.5113L63.7894 35.9366Z"/>
</mask>
<path d="M41.082 19.6243C40.6662 19.2085 40.3627 18.7663 40.1713 18.2978C39.9865 17.8226 39.9238 17.3639 39.9832 16.9217C40.0492 16.473 40.2373 16.0737 40.5474 15.7239L41.478 16.6544C41.2338 16.9514 41.1381 17.2979 41.1909 17.6939C41.2503 18.0965 41.4648 18.4825 41.8344 18.8521C42.1776 19.1953 42.524 19.39 42.8738 19.4362C43.2236 19.4824 43.514 19.39 43.745 19.159C43.9826 18.9214 44.0519 18.6409 43.9529 18.3176C43.8605 17.9876 43.6493 17.5454 43.3193 16.991C43.0223 16.4829 42.7979 16.0473 42.6461 15.6843C42.5075 15.3213 42.4514 14.9418 42.4778 14.5458C42.5174 14.1499 42.7121 13.777 43.0619 13.4272C43.3391 13.15 43.6757 12.9784 44.0717 12.9124C44.4676 12.8464 44.8834 12.8992 45.319 13.0708C45.7612 13.2358 46.177 13.513 46.5663 13.9024C47.1669 14.503 47.5002 15.1398 47.5662 15.813C47.6322 16.4862 47.4144 17.0999 46.9128 17.6543L46.012 16.7534C46.276 16.4499 46.3881 16.1067 46.3485 15.7239C46.3156 15.3477 46.1242 14.9847 45.7744 14.6349C45.451 14.3116 45.1243 14.1235 44.7943 14.0707C44.4643 14.0179 44.1872 14.1037 43.9628 14.3281C43.7846 14.5063 43.6922 14.7108 43.6856 14.9418C43.6922 15.1728 43.745 15.4104 43.844 15.6546C43.9562 15.8988 44.1245 16.2189 44.3489 16.6148C44.6326 17.1098 44.8438 17.5322 44.9824 17.882C45.1276 18.2252 45.1837 18.5848 45.1507 18.961C45.1243 19.3438 44.9494 19.7035 44.626 20.0401C44.3291 20.3371 43.9793 20.5218 43.5767 20.5944C43.1741 20.667 42.7517 20.6208 42.3096 20.4558C41.8806 20.2909 41.4714 20.0137 41.082 19.6243ZM46.8184 19.7179C47.3728 19.1636 47.97 18.7907 48.6102 18.5993C49.257 18.4013 49.8905 18.3815 50.5109 18.5399C51.1379 18.7049 51.6922 19.0283 52.174 19.5101C52.6492 19.9852 52.9594 20.5 53.1046 21.0544C53.2498 21.6088 53.2531 22.1268 53.1145 22.6086L54.1044 21.6187L55.0152 22.5294L49.5902 27.9543L48.6795 27.0436L49.6892 26.0338C49.1943 26.1724 48.663 26.1691 48.0954 26.0239C47.5411 25.8787 47.0296 25.5719 46.561 25.1033C46.0792 24.6215 45.7624 24.0671 45.6106 23.4402C45.4589 22.8132 45.4853 22.173 45.6898 21.5197C45.8944 20.8663 46.2706 20.2657 46.8184 19.7179ZM51.4019 24.3212C51.811 23.912 52.0849 23.4732 52.2235 23.0046C52.3621 22.536 52.3687 22.0806 52.2433 21.6385C52.1311 21.1963 51.9067 20.8069 51.5701 20.4703C51.2336 20.1337 50.8475 19.906 50.4119 19.7872C49.9763 19.6685 49.5242 19.6784 49.0557 19.8169C48.5871 19.9555 48.1482 20.2294 47.739 20.6386C47.3233 21.0544 47.0428 21.4999 46.8976 21.975C46.759 22.4436 46.7458 22.899 46.858 23.3412C46.9768 23.7767 47.2045 24.1628 47.5411 24.4994C47.8776 24.836 48.2637 25.0637 48.6993 25.1825C49.1481 25.3013 49.6067 25.2914 50.0753 25.1528C50.5505 25.0076 50.9927 24.7304 51.4019 24.3212ZM53.9637 30.6646L60.2399 27.7542L61.2002 28.7144L53.6469 32.011L52.5975 30.9616L55.8941 23.4083L56.8642 24.3784L53.9637 30.6646ZM64.5318 37.0552C64.3602 37.2268 64.1689 37.3984 63.9577 37.57L59.6217 33.234C59.1201 33.8016 58.8825 34.4021 58.9089 35.0357C58.9485 35.6693 59.2059 36.2237 59.6811 36.6988C60.0705 37.0882 60.4829 37.3225 60.9185 37.4017C61.3673 37.4809 61.7963 37.4215 62.2055 37.2235L63.1756 38.1937C62.509 38.5698 61.793 38.7051 61.0274 38.5995C60.2685 38.4873 59.5656 38.1079 58.9188 37.4611C58.404 36.9463 58.0576 36.3688 57.8794 35.7287C57.7078 35.0951 57.7177 34.4516 57.9091 33.7983C58.1071 33.1383 58.4865 32.5278 59.0475 31.9669C59.6085 31.4059 60.2124 31.0264 60.8591 30.8284C61.5059 30.6304 62.1428 30.6205 62.7697 30.7987C63.4099 30.9769 63.994 31.33 64.5219 31.858C65.0367 32.3728 65.3799 32.9403 65.5515 33.5607C65.7231 34.1811 65.7165 34.7948 65.5317 35.402C65.3601 36.0092 65.0268 36.5602 64.5318 37.0552ZM63.7894 35.9366C64.1326 35.5934 64.3503 35.2238 64.4427 34.8278C64.5417 34.4252 64.5219 34.0293 64.3833 33.6399C64.2579 33.2505 64.0369 32.8974 63.7201 32.5806C63.2647 32.1253 62.7301 31.8811 62.1164 31.8481C61.5092 31.8217 60.9251 32.0428 60.3641 32.5113L63.7894 35.9366Z" fill="#FBFBFB"/>
<path d="M40.1713 18.2978L39.2393 18.6602L39.2423 18.6681L39.2455 18.6759L40.1713 18.2978ZM39.9832 16.9217L38.9937 16.7762L38.9921 16.7886L39.9832 16.9217ZM40.5474 15.7239L41.2546 15.0168L40.5037 14.266L39.7993 15.0604L40.5474 15.7239ZM41.478 16.6544L42.2504 17.2895L42.8266 16.5888L42.1851 15.9473L41.478 16.6544ZM41.1909 17.6939L40.1996 17.8261L40.2016 17.8398L41.1909 17.6939ZM43.9529 18.3176L42.9899 18.5872L42.9932 18.5988L42.9967 18.6103L43.9529 18.3176ZM43.3193 16.991L42.4559 17.4956L42.46 17.5025L43.3193 16.991ZM42.6461 15.6843L41.7119 16.041L41.7175 16.0556L41.7236 16.0701L42.6461 15.6843ZM42.4778 14.5458L41.4828 14.4463L41.4812 14.4628L41.4801 14.4793L42.4778 14.5458ZM44.0717 12.9124L43.9073 11.926L43.9073 11.926L44.0717 12.9124ZM45.319 13.0708L44.9525 14.0012L44.9609 14.0046L44.9694 14.0077L45.319 13.0708ZM47.5662 15.813L46.571 15.9106L47.5662 15.813ZM46.9128 17.6543L46.2057 18.3614L46.9491 19.1047L47.6544 18.3252L46.9128 17.6543ZM46.012 16.7534L45.2574 16.0973L44.6454 16.8011L45.3049 17.4605L46.012 16.7534ZM46.3485 15.7239L45.3524 15.8113L45.3531 15.819L45.3539 15.8268L46.3485 15.7239ZM44.7943 14.0707L44.9523 13.0832L44.9523 13.0832L44.7943 14.0707ZM43.6856 14.9418L42.686 14.9133L42.6852 14.9418L42.686 14.9704L43.6856 14.9418ZM43.844 15.6546L42.9172 16.0303L42.9258 16.0514L42.9353 16.0721L43.844 15.6546ZM44.3489 16.6148L43.4788 17.1079L43.4813 17.1122L44.3489 16.6148ZM44.9824 17.882L44.0527 18.2503L44.057 18.261L44.0615 18.2716L44.9824 17.882ZM45.1507 18.961L44.1545 18.8736L44.1537 18.8829L44.1531 18.8922L45.1507 18.961ZM44.626 20.0401L45.3331 20.7472L45.3402 20.7401L45.3471 20.7329L44.626 20.0401ZM43.5767 20.5944L43.3992 19.6103L43.3992 19.6103L43.5767 20.5944ZM42.3096 20.4558L41.9506 21.3892L41.96 21.3928L42.3096 20.4558ZM41.7891 18.9172C41.4523 18.5804 41.2307 18.2468 41.097 17.9196L39.2455 18.6759C39.4946 19.2858 39.8801 19.8366 40.3749 20.3314L41.7891 18.9172ZM41.1033 17.9353C40.9709 17.5949 40.9404 17.3069 40.9743 17.0549L38.9921 16.7886C38.9071 17.421 39.0021 18.0502 39.2393 18.6602L41.1033 17.9353ZM40.9725 17.0672C41.0093 16.817 41.1103 16.5963 41.2956 16.3874L39.7993 15.0604C39.3642 15.551 39.089 16.1289 38.9938 16.7762L40.9725 17.0672ZM39.8403 16.431L40.7709 17.3615L42.1851 15.9473L41.2546 15.0168L39.8403 16.431ZM40.7056 16.0193C40.2775 16.5399 40.1118 17.1671 40.1997 17.8261L42.1821 17.5617C42.1644 17.4287 42.1901 17.3629 42.2504 17.2895L40.7056 16.0193ZM40.2016 17.8398C40.3003 18.5085 40.6492 19.0812 41.1273 19.5592L42.5415 18.145C42.2804 17.8839 42.2003 17.6844 42.1802 17.5479L40.2016 17.8398ZM41.1273 19.5592C41.5685 20.0004 42.1062 20.3435 42.7429 20.4276L43.0048 18.4448C42.9419 18.4365 42.7866 18.3902 42.5415 18.145L41.1273 19.5592ZM42.7429 20.4276C43.3725 20.5107 43.9816 20.3366 44.4521 19.8661L43.0379 18.4519C43.0309 18.4588 43.0293 18.4591 43.0335 18.4565C43.038 18.4537 43.0442 18.4507 43.0507 18.4486C43.0571 18.4466 43.0587 18.447 43.053 18.4475C43.047 18.4479 43.0315 18.4483 43.0048 18.4448L42.7429 20.4276ZM44.4521 19.8661C44.6784 19.6398 44.8609 19.3545 44.946 19.0103C45.0309 18.6665 45.0024 18.3296 44.9091 18.0248L42.9967 18.6103C43 18.6212 42.9976 18.6174 42.9968 18.6012C42.9959 18.584 42.9973 18.5592 43.0043 18.5306C43.0114 18.502 43.0219 18.4789 43.0312 18.4631C43.0401 18.4482 43.0449 18.4449 43.0379 18.4519L44.4521 19.8661ZM44.9158 18.0479C44.7872 17.5886 44.5214 17.0555 44.1786 16.4795L42.46 17.5025C42.7771 18.0353 42.9337 18.3866 42.9899 18.5872L44.9158 18.0479ZM44.1827 16.4865C43.8982 15.9998 43.6973 15.6059 43.5687 15.2985L41.7236 16.0701C41.8986 16.4886 42.1464 16.9659 42.4559 17.4956L44.1827 16.4865ZM43.5804 15.3276C43.4944 15.1024 43.4586 14.8675 43.4756 14.6124L41.4801 14.4793C41.4443 15.0161 41.5207 15.5402 41.7119 16.041L43.5804 15.3276ZM43.4729 14.6454C43.4844 14.5306 43.5417 14.3616 43.769 14.1343L42.3548 12.7201C41.8826 13.1923 41.5505 13.7692 41.4828 14.4463L43.4729 14.6454ZM43.769 14.1343C43.8951 14.0083 44.0404 13.9314 44.2361 13.8988L43.9073 11.926C43.311 12.0254 42.7831 12.2918 42.3548 12.7201L43.769 14.1343ZM44.2361 13.8988C44.4254 13.8673 44.6571 13.8849 44.9525 14.0012L45.6855 12.1404C45.1097 11.9136 44.5099 11.8256 43.9073 11.926L44.2361 13.8988ZM44.9694 14.0077C45.2568 14.1149 45.5544 14.3047 45.8592 14.6095L47.2734 13.1953C46.7995 12.7213 46.2656 12.3567 45.6686 12.1339L44.9694 14.0077ZM45.8592 14.6095C46.339 15.0893 46.5328 15.5217 46.571 15.9106L48.5614 15.7154C48.4675 14.7579 47.9948 13.9166 47.2734 13.1953L45.8592 14.6095ZM46.571 15.9106C46.6064 16.272 46.506 16.6135 46.1713 16.9834L47.6544 18.3252C48.3228 17.5864 48.658 16.7003 48.5614 15.7154L46.571 15.9106ZM47.6199 16.9472L46.7191 16.0463L45.3049 17.4605L46.2057 18.3614L47.6199 16.9472ZM46.7666 17.4096C47.2029 16.9078 47.4127 16.2929 47.3432 15.621L45.3539 15.8268C45.3635 15.9204 45.349 15.9919 45.2574 16.0973L46.7666 17.4096ZM47.3447 15.6365C47.2855 14.9619 46.9453 14.3916 46.4815 13.9278L45.0673 15.3421C45.3031 15.5778 45.3456 15.7335 45.3524 15.8113L47.3447 15.6365ZM46.4815 13.9278C46.0629 13.5093 45.5546 13.1796 44.9523 13.0832L44.6363 15.0581C44.6941 15.0673 44.839 15.1138 45.0673 15.3421L46.4815 13.9278ZM44.9523 13.0832C44.3255 12.9829 43.7206 13.156 43.2557 13.621L44.6699 15.0352C44.6755 15.0296 44.6747 15.0314 44.6669 15.0363C44.6588 15.0413 44.6475 15.0467 44.6346 15.0507C44.6219 15.0547 44.6131 15.0555 44.611 15.0556C44.6094 15.0557 44.6172 15.055 44.6363 15.0581L44.9523 13.0832ZM43.2557 13.621C42.9148 13.9619 42.7006 14.4029 42.686 14.9133L44.6852 14.9704C44.685 14.9754 44.6843 14.984 44.6818 14.9952C44.6792 15.0063 44.6755 15.0172 44.6712 15.0267C44.662 15.0471 44.6558 15.0493 44.6699 15.0352L43.2557 13.621ZM42.686 14.9704C42.6964 15.336 42.7797 15.691 42.9172 16.0303L44.7707 15.2789C44.7103 15.1298 44.6879 15.0097 44.6852 14.9133L42.686 14.9704ZM42.9353 16.0721C43.0646 16.3535 43.2486 16.7016 43.4788 17.1079L45.2189 16.1218C45.0003 15.7361 44.8477 15.444 44.7527 15.2371L42.9353 16.0721ZM43.4813 17.1122C43.7521 17.5846 43.9383 17.9614 44.0527 18.2503L45.9121 17.5136C45.7494 17.103 45.5131 16.6351 45.2164 16.1175L43.4813 17.1122ZM44.0615 18.2716C44.1421 18.4622 44.1735 18.6579 44.1545 18.8736L46.1469 19.0484C46.194 18.5117 46.1131 17.9881 45.9034 17.4923L44.0615 18.2716ZM44.1531 18.8922C44.1461 18.9933 44.1023 19.1418 43.9049 19.3472L45.3471 20.7329C45.7965 20.2652 46.1025 19.6943 46.1483 19.0298L44.1531 18.8922ZM43.9189 19.333C43.762 19.4899 43.5955 19.5749 43.3992 19.6103L43.7542 21.5786C44.363 21.4688 44.8961 21.1842 45.3331 20.7472L43.9189 19.333ZM43.3992 19.6103C43.1991 19.6464 42.9593 19.631 42.6591 19.5189L41.96 21.3928C42.5441 21.6107 43.1491 21.6877 43.7542 21.5786L43.3992 19.6103ZM42.6685 19.5225C42.3934 19.4167 42.0988 19.2269 41.7891 18.9172L40.3749 20.3314C40.844 20.8005 41.3678 21.165 41.9506 21.3892L42.6685 19.5225ZM48.6102 18.5993L48.8966 19.5574L48.9029 19.5555L48.6102 18.5993ZM50.5109 18.5399L50.7654 17.5728L50.7583 17.571L50.5109 18.5399ZM53.1046 21.0544L52.1372 21.3077L52.1372 21.3077L53.1046 21.0544ZM53.1145 22.6086L52.1534 22.3321L53.8216 23.3157L53.1145 22.6086ZM54.1044 21.6187L54.8115 20.9115L54.1044 20.2044L53.3973 20.9115L54.1044 21.6187ZM55.0152 22.5294L55.7223 23.2365L56.4294 22.5294L55.7223 21.8223L55.0152 22.5294ZM49.5902 27.9543L48.8831 28.6614L49.5902 29.3685L50.2974 28.6614L49.5902 27.9543ZM48.6795 27.0436L47.9724 26.3365L47.2653 27.0436L47.9724 27.7507L48.6795 27.0436ZM49.6892 26.0338L50.3963 26.7409L53.0957 24.0415L49.4196 25.0709L49.6892 26.0338ZM48.0954 26.0239L47.8421 26.9913L47.8476 26.9927L48.0954 26.0239ZM45.6106 23.4402L44.6387 23.6755L45.6106 23.4402ZM45.6898 21.5197L46.6442 21.8185L45.6898 21.5197ZM52.2433 21.6385L51.274 21.8844L51.2774 21.8979L51.2812 21.9113L52.2433 21.6385ZM50.4119 19.7872L50.675 18.8225L50.675 18.8225L50.4119 19.7872ZM49.0557 19.8169L49.3393 20.7759L49.3393 20.7759L49.0557 19.8169ZM46.8976 21.975L45.9412 21.6828L45.9386 21.6914L46.8976 21.975ZM46.858 23.3412L45.8887 23.5871L45.8909 23.5957L45.8932 23.6043L46.858 23.3412ZM48.6993 25.1825L48.4362 26.1473L48.4434 26.1492L48.6993 25.1825ZM50.0753 25.1528L50.359 26.1117L50.3675 26.1091L50.0753 25.1528ZM47.5255 20.4251C47.983 19.9676 48.4408 19.6937 48.8966 19.5574L48.3238 17.6412C47.4992 17.8877 46.7625 18.3596 46.1113 19.0108L47.5255 20.4251ZM48.9029 19.5555C49.3846 19.4081 49.8311 19.3984 50.2635 19.5088L50.7583 17.571C49.9499 17.3646 49.1294 17.3946 48.3175 17.6431L48.9029 19.5555ZM50.2564 19.507C50.7033 19.6246 51.1037 19.8539 51.4669 20.2172L52.8811 18.803C52.2808 18.2026 51.5724 17.7852 50.7654 17.5728L50.2564 19.507ZM51.4669 20.2172C51.8385 20.5887 52.0442 20.9527 52.1372 21.3077L54.0719 20.801C53.8746 20.0474 53.4599 19.3817 52.8811 18.803L51.4669 20.2172ZM52.1372 21.3077C52.2435 21.7135 52.2355 22.0468 52.1534 22.3321L54.0755 22.8851C54.2706 22.2069 54.2561 21.504 54.0719 20.801L52.1372 21.3077ZM53.8216 23.3157L54.8115 22.3258L53.3973 20.9115L52.4074 21.9015L53.8216 23.3157ZM53.3973 22.3258L54.3081 23.2365L55.7223 21.8223L54.8115 20.9115L53.3973 22.3258ZM54.3081 21.8223L48.8831 27.2472L50.2974 28.6614L55.7223 23.2365L54.3081 21.8223ZM50.2974 27.2472L49.3866 26.3365L47.9724 27.7507L48.8831 28.6614L50.2974 27.2472ZM49.3866 27.7507L50.3963 26.7409L48.9821 25.3267L47.9724 26.3365L49.3866 27.7507ZM49.4196 25.0709C49.1161 25.1558 48.765 25.163 48.3433 25.0551L47.8476 26.9927C48.561 27.1752 49.2724 27.189 49.9589 26.9968L49.4196 25.0709ZM48.3488 25.0566C47.9914 24.9629 47.6311 24.7591 47.2681 24.3962L45.8539 25.8104C46.4281 26.3846 47.0907 26.7945 47.8421 26.9913L48.3488 25.0566ZM47.2681 24.3962C46.9087 24.0367 46.6887 23.643 46.5826 23.2049L44.6387 23.6755C44.8362 24.4912 45.2498 25.2063 45.8539 25.8104L47.2681 24.3962ZM46.5826 23.2049C46.4761 22.7652 46.4903 22.3098 46.6442 21.8185L44.7355 21.2208C44.4802 22.0363 44.4416 22.8612 44.6387 23.6755L46.5826 23.2049ZM46.6442 21.8185C46.7945 21.3384 47.0767 20.8738 47.5255 20.4251L46.1113 19.0108C45.4645 19.6576 44.9944 20.3942 44.7355 21.2208L46.6442 21.8185ZM52.109 25.0283C52.6144 24.5229 52.9885 23.9438 53.1824 23.2882L51.2646 22.721C51.1813 23.0025 51.0077 23.3011 50.6947 23.6141L52.109 25.0283ZM53.1824 23.2882C53.3712 22.6502 53.3857 22.0015 53.2054 21.3656L51.2812 21.9113C51.3517 22.1597 51.353 22.4218 51.2646 22.721L53.1824 23.2882ZM53.2126 21.3925C53.0542 20.7681 52.7354 20.2213 52.2773 19.7632L50.863 21.1774C51.0781 21.3925 51.2081 21.6245 51.274 21.8844L53.2126 21.3925ZM52.2773 19.7632C51.8246 19.3105 51.2877 18.9896 50.675 18.8225L50.1488 20.752C50.4073 20.8225 50.6426 20.957 50.863 21.1774L52.2773 19.7632ZM50.675 18.8225C50.0455 18.6508 49.4036 18.6712 48.772 18.858L49.3393 20.7759C49.6449 20.6855 49.9072 20.6861 50.1488 20.752L50.675 18.8225ZM48.772 18.858C48.1164 19.0519 47.5373 19.4261 47.0319 19.9315L48.4461 21.3457C48.7591 21.0327 49.0578 20.8591 49.3393 20.7759L48.772 18.858ZM47.0319 19.9315C46.5216 20.4419 46.1423 21.0246 45.9412 21.6828L47.8539 22.2673C47.9432 21.9751 48.125 21.6669 48.4461 21.3457L47.0319 19.9315ZM45.9386 21.6914C45.7528 22.3196 45.7291 22.9583 45.8887 23.5871L47.8273 23.0952C47.7624 22.8397 47.7651 22.5676 47.8565 22.2587L45.9386 21.6914ZM45.8932 23.6043C46.0603 24.217 46.3812 24.7538 46.8339 25.2065L48.2482 23.7923C48.0277 23.5718 47.8932 23.3365 47.8227 23.078L45.8932 23.6043ZM46.8339 25.2065C47.2866 25.6592 47.8235 25.9801 48.4362 26.1472L48.9624 24.2177C48.7039 24.1472 48.4686 24.0128 48.2482 23.7923L46.8339 25.2065ZM48.4434 26.1492C49.0788 26.3174 49.7243 26.2994 50.359 26.1117L49.7917 24.1938C49.4892 24.2833 49.2173 24.2852 48.9552 24.2158L48.4434 26.1492ZM50.3675 26.1091C51.0233 25.9087 51.6031 25.5342 52.109 25.0283L50.6947 23.6141C50.3822 23.9266 50.0777 24.1064 49.7831 24.1964L50.3675 26.1091ZM53.9637 30.6646L53.0557 30.2457L51.9155 32.7167L54.3843 31.5718L53.9637 30.6646ZM60.2399 27.7542L60.947 27.0471L60.453 26.5531L59.8192 26.847L60.2399 27.7542ZM61.2002 28.7144L61.6002 29.6309L62.9443 29.0443L61.9073 28.0073L61.2002 28.7144ZM53.6469 32.011L52.9398 32.7181L53.4219 33.2002L54.0469 32.9275L53.6469 32.011ZM52.5975 30.9616L51.681 30.5616L51.4083 31.1866L51.8904 31.6687L52.5975 30.9616ZM55.8941 23.4083L56.6012 22.7012L55.5642 21.6642L54.9775 23.0083L55.8941 23.4083ZM56.8642 24.3784L57.7722 24.7974L58.0643 24.1643L57.5713 23.6713L56.8642 24.3784ZM54.3843 31.5718L60.6606 28.6614L59.8192 26.847L53.543 29.7574L54.3843 31.5718ZM59.5328 28.4613L60.4931 29.4215L61.9073 28.0073L60.947 27.0471L59.5328 28.4613ZM60.8002 27.7979L53.2469 31.0944L54.0469 32.9275L61.6002 29.6309L60.8002 27.7979ZM54.354 31.3038L53.3046 30.2545L51.8904 31.6687L52.9398 32.7181L54.354 31.3038ZM53.514 31.3616L56.8106 23.8083L54.9775 23.0083L51.681 30.5616L53.514 31.3616ZM55.187 24.1154L56.1571 25.0856L57.5713 23.6713L56.6012 22.7012L55.187 24.1154ZM55.9562 23.9595L53.0557 30.2457L54.8717 31.0836L57.7722 24.7974L55.9562 23.9595ZM63.9577 37.57L63.2506 38.2771L63.8883 38.9148L64.5883 38.3461L63.9577 37.57ZM59.6217 33.234L60.3288 32.5269L59.5767 31.7748L58.8724 32.5718L59.6217 33.234ZM58.9089 35.0357L57.9098 35.0773L57.9102 35.0877L57.9109 35.0981L58.9089 35.0357ZM60.9185 37.4017L60.7396 38.3856L60.7447 38.3865L60.9185 37.4017ZM62.2055 37.2235L62.9126 36.5164L62.4098 36.0137L61.7699 36.3233L62.2055 37.2235ZM63.1756 38.1937L63.6671 39.0645L64.8136 38.4175L63.8827 37.4865L63.1756 38.1937ZM61.0274 38.5995L60.8812 39.5888L60.8908 39.5902L61.0274 38.5995ZM57.8794 35.7287L56.9141 35.9901L56.916 35.9968L57.8794 35.7287ZM57.9091 33.7983L56.9512 33.5109L56.9494 33.5172L57.9091 33.7983ZM60.8591 30.8284L61.1518 31.7846L61.1518 31.7846L60.8591 30.8284ZM62.7697 30.7987L62.4963 31.7607L62.5016 31.7621L62.7697 30.7987ZM65.5515 33.5607L64.5877 33.8273L65.5515 33.5607ZM65.5317 35.402L64.575 35.1108L64.5721 35.1204L64.5694 35.13L65.5317 35.402ZM63.7894 35.9366L63.0823 36.6437L63.7894 37.3508L64.4965 36.6437L63.7894 35.9366ZM64.4427 34.8278L63.4716 34.589L63.4689 34.6006L64.4427 34.8278ZM64.3833 33.6399L63.4315 33.9464L63.4361 33.9609L63.4412 33.9752L64.3833 33.6399ZM62.1164 31.8481L62.17 30.8495L62.1598 30.849L62.1164 31.8481ZM60.3641 32.5113L59.7231 31.7439L58.8836 32.445L59.657 33.2185L60.3641 32.5113ZM63.8247 36.3481C63.6801 36.4927 63.5147 36.6414 63.3271 36.7939L64.5883 38.3461C64.823 38.1554 65.0403 37.9609 65.2389 37.7623L63.8247 36.3481ZM64.6648 36.8629L60.3288 32.5269L58.9146 33.9411L63.2506 38.2771L64.6648 36.8629ZM58.8724 32.5718C58.2352 33.2928 57.8706 34.1368 57.9098 35.0773L59.9081 34.9941C59.8944 34.6675 60.005 34.3103 60.371 33.8962L58.8724 32.5718ZM57.9109 35.0981C57.9666 35.9899 58.3375 36.7695 58.974 37.4059L60.3882 35.9917C60.0743 35.6778 59.9304 35.3486 59.907 34.9733L57.9109 35.0981ZM58.974 37.4059C59.4719 37.9038 60.0598 38.262 60.7396 38.3856L61.0974 36.4178C60.906 36.383 60.6691 36.2726 60.3882 35.9917L58.974 37.4059ZM60.7447 38.3865C61.3999 38.5021 62.0421 38.4134 62.641 38.1237L61.7699 36.3233C61.5504 36.4295 61.3347 36.4597 61.0923 36.4169L60.7447 38.3865ZM61.4983 37.9306L62.4685 38.9008L63.8827 37.4865L62.9126 36.5164L61.4983 37.9306ZM62.6841 37.3228C62.2102 37.5902 61.715 37.6849 61.164 37.6089L60.8908 39.5902C61.8709 39.7253 62.8079 39.5494 63.6671 39.0645L62.6841 37.3228ZM61.1736 37.6103C60.6656 37.5352 60.1509 37.279 59.6259 36.754L58.2117 38.1682C58.9803 38.9368 59.8713 39.4395 60.8812 39.5888L61.1736 37.6103ZM59.6259 36.754C59.221 36.3491 58.9704 35.9192 58.8427 35.4605L56.916 35.9968C57.1447 36.8185 57.5871 37.5436 58.2117 38.1682L59.6259 36.754ZM58.8446 35.4673C58.723 35.0184 58.7271 34.5628 58.8687 34.0794L56.9494 33.5172C56.7082 34.3405 56.6925 35.1718 56.9141 35.9901L58.8446 35.4673ZM58.8669 34.0856C59.0106 33.6067 59.2928 33.1358 59.7546 32.674L58.3404 31.2598C57.6803 31.9199 57.2035 32.6699 56.9512 33.5109L58.8669 34.0856ZM59.7546 32.674C60.2199 32.2087 60.6865 31.9271 61.1518 31.7846L60.5664 29.8722C59.7382 30.1258 58.997 30.6031 58.3404 31.2598L59.7546 32.674ZM61.1518 31.7846C61.6217 31.6408 62.0619 31.6372 62.4963 31.7606L63.0431 29.8368C62.2236 29.6039 61.3901 29.6201 60.5664 29.8722L61.1518 31.7846ZM62.5016 31.7621C62.9561 31.8886 63.3933 32.1436 63.8148 32.5651L65.229 31.1509C64.5946 30.5164 63.8637 30.0652 63.0379 29.8354L62.5016 31.7621ZM63.8148 32.5651C64.2237 32.974 64.4679 33.3943 64.5877 33.8273L66.5153 33.2941C66.2919 32.4863 65.8497 31.7715 65.229 31.1509L63.8148 32.5651ZM64.5877 33.8273C64.7094 34.2676 64.7037 34.6878 64.575 35.1108L66.4884 35.6932C66.7292 34.9018 66.7367 34.0946 66.5153 33.2941L64.5877 33.8273ZM64.5694 35.13C64.4492 35.5553 64.2124 35.9605 63.8247 36.3481L65.2389 37.7623C65.8413 37.16 66.271 36.4631 66.494 35.674L64.5694 35.13ZM64.4965 36.6437C64.9458 36.1943 65.2742 35.6653 65.4166 35.0551L63.4689 34.6006C63.4265 34.7824 63.3193 34.9924 63.0823 35.2295L64.4965 36.6437ZM65.4138 35.0666C65.5594 34.4746 65.5299 33.879 65.3254 33.3046L63.4412 33.9752C63.514 34.1796 63.5241 34.3759 63.4717 34.589L65.4138 35.0666ZM65.3352 33.3334C65.1567 32.7789 64.8453 32.2917 64.4272 31.8735L63.013 33.2877C63.2284 33.5032 63.3592 33.7221 63.4315 33.9464L65.3352 33.3334ZM64.4272 31.8735C63.8065 31.2529 63.0427 30.8964 62.17 30.8495L62.0627 32.8466C62.4176 32.8657 62.7229 32.9977 63.013 33.2877L64.4272 31.8735ZM62.1598 30.849C61.255 30.8097 60.4345 31.1496 59.7231 31.7439L61.0052 33.2788C61.4158 32.9359 61.7634 32.8337 62.0729 32.8471L62.1598 30.849ZM59.657 33.2185L63.0823 36.6437L64.4965 35.2295L61.0713 31.8042L59.657 33.2185Z" fill="#DC1F1F" mask="url(#path-3-outside-1_1531_41832)"/>
</svg>
